<svg xmlns="http://www.w3.org/2000/svg" width="512" height="512" viewBox="-4 -4 32 32" fill="none" stroke-linecap="round" stroke-linejoin="round">
  <rect x="-4" y="-4" width="32" height="32" rx="4" fill="#18181b"/>
  <g transform="translate(12,12) scale(0.046875) translate(-256,-256)" fill="#e4e4e7"><path d="M153 74l3 3 15 26 14 24 15 26 14 24 15 26 14 24 15 26 1 4-10 18-14 24-15 26-14 24-15 26-14 24-15 26-8 13-3-3-16-28-14-24-15-26-14-24-15-26-14-24-15-26 2-6 14-24 15-26 14-24 15-26 14-24 15-26 14-24zm148 0h58l14 24 14 24 15 26 14 24 15 26 15 26 14 24 4 7-2 6-14 24-15 26-14 24-15 26-14 24-15 26-14 24-2 3h-58l2-6 14-24 15-26 15-26 14-24 15-26 14-24 14-24-1-6-14-24-15-26-14-24-15-26-14-24-15-26-14-24zm-8 203h58l-1 5-10 17-15 26-14 24-15 26-14 24-15 26-8 13h-58l2-6 14-24 15-26 14-24 15-26 14-24 15-26zM201 74h58l13 22 15 26 14 24 15 26 14 24 15 26 6 10v3h-58l-16-28-14-24-15-26-14-24-15-26-14-24-4-7z"/></g>
</svg>
